<svg width="99" height="12" viewBox="0 0 99 12" fill="none" xmlns="http://www.w3.org/2000/svg">
<path d="M4.88758e-06 11.76V0.240002H1.08L5.60801 9.928L10.112 0.240002H11.208V11.752H10.088V2.864L5.98401 11.76H5.22401L1.12801 2.864V11.76H4.88758e-06ZM15.9251 12C15.2745 12 14.7278 11.8827 14.2851 11.648C13.8478 11.4133 13.5198 11.1013 13.3011 10.712C13.0825 10.3227 12.9731 9.89867 12.9731 9.44C12.9731 8.97067 13.0665 8.57067 13.2531 8.24C13.4451 7.904 13.7038 7.62934 14.0291 7.416C14.3598 7.20267 14.7411 7.04 15.1731 6.928C15.6105 6.82134 16.0931 6.728 16.6211 6.648C17.1545 6.56267 17.6745 6.49067 18.1811 6.432C18.6931 6.368 19.1411 6.30667 19.5251 6.248L19.1091 6.504C19.1251 5.65067 18.9598 5.01867 18.6131 4.608C18.2665 4.19733 17.6638 3.992 16.8051 3.992C16.2131 3.992 15.7118 4.12533 15.3011 4.392C14.8958 4.65867 14.6105 5.08 14.4451 5.656L13.3011 5.32C13.4985 4.54667 13.8958 3.94667 14.4931 3.52C15.0905 3.09334 15.8665 2.88 16.8211 2.88C17.6105 2.88 18.2798 3.02934 18.8291 3.328C19.3838 3.62134 19.7758 4.048 20.0051 4.608C20.1118 4.85867 20.1811 5.13867 20.2131 5.448C20.2451 5.75734 20.2611 6.072 20.2611 6.392V11.76H19.2131V9.592L19.5171 9.72C19.2238 10.4613 18.7678 11.0267 18.1491 11.416C17.5305 11.8053 16.7891 12 15.9251 12ZM16.0611 10.984C16.6105 10.984 17.0905 10.8853 17.5011 10.688C17.9118 10.4907 18.2425 10.2213 18.4931 9.88C18.7438 9.53334 18.9065 9.144 18.9811 8.712C19.0451 8.43467 19.0798 8.13067 19.0851 7.8C19.0905 7.464 19.0931 7.21334 19.0931 7.048L19.5411 7.28C19.1411 7.33334 18.7065 7.38667 18.2371 7.44C17.7731 7.49334 17.3145 7.55467 16.8611 7.624C16.4131 7.69334 16.0078 7.776 15.6451 7.872C15.3998 7.94134 15.1625 8.04 14.9331 8.168C14.7038 8.29067 14.5145 8.456 14.3651 8.664C14.2211 8.872 14.1491 9.13067 14.1491 9.44C14.1491 9.69067 14.2105 9.93334 14.3331 10.168C14.4611 10.4027 14.6638 10.5973 14.9411 10.752C15.2238 10.9067 15.5971 10.984 16.0611 10.984ZM28.5838 11.76V7.352C28.5838 6.872 28.5384 6.432 28.4478 6.032C28.3571 5.62667 28.2104 5.27467 28.0078 4.976C27.8104 4.672 27.5518 4.43734 27.2318 4.272C26.9171 4.10667 26.5331 4.024 26.0798 4.024C25.6638 4.024 25.2958 4.096 24.9758 4.24C24.6611 4.384 24.3944 4.592 24.1758 4.864C23.9624 5.13067 23.7998 5.456 23.6878 5.84C23.5758 6.224 23.5198 6.66134 23.5198 7.152L22.6878 6.968C22.6878 6.08267 22.8424 5.33867 23.1518 4.736C23.4611 4.13334 23.8878 3.67734 24.4318 3.368C24.9758 3.05867 25.5998 2.904 26.3038 2.904C26.8211 2.904 27.2718 2.984 27.6558 3.144C28.0451 3.304 28.3731 3.52 28.6398 3.792C28.9118 4.064 29.1304 4.376 29.2958 4.728C29.4611 5.07467 29.5811 5.44534 29.6558 5.84C29.7304 6.22934 29.7678 6.61867 29.7678 7.008V11.76H28.5838ZM22.3358 11.76V3.12H23.3998V5.248H23.5198V11.76H22.3358ZM35.1478 11.976C34.6304 11.976 34.1771 11.896 33.7878 11.736C33.4038 11.576 33.0758 11.36 32.8038 11.088C32.5371 10.816 32.3211 10.5067 32.1558 10.16C31.9904 9.808 31.8704 9.43734 31.7958 9.048C31.7211 8.65334 31.6838 8.26134 31.6838 7.872V3.12H32.8678V7.528C32.8678 8.00267 32.9131 8.44267 33.0038 8.848C33.0944 9.25334 33.2384 9.608 33.4358 9.912C33.6384 10.2107 33.8971 10.4427 34.2118 10.608C34.5318 10.7733 34.9184 10.856 35.3718 10.856C35.7878 10.856 36.1531 10.784 36.4678 10.64C36.7878 10.496 37.0544 10.2907 37.2678 10.024C37.4864 9.752 37.6518 9.424 37.7638 9.04C37.8758 8.65067 37.9318 8.21334 37.9318 7.728L38.7638 7.912C38.7638 8.79734 38.6091 9.54134 38.2998 10.144C37.9904 10.7467 37.5638 11.2027 37.0198 11.512C36.4758 11.8213 35.8518 11.976 35.1478 11.976ZM38.0518 11.76V9.632H37.9318V3.12H39.1078V11.76H38.0518ZM41.5038 1.48V0.160002H42.6798V1.48H41.5038ZM41.5038 11.76V3.12H42.6798V11.76H41.5038ZM45.2381 11.76V1.90735e-06H46.4141V11.76H45.2381ZM48.9725 1.48V0.160002H50.1485V1.48H48.9725ZM48.9725 11.76V3.12H50.1485V11.76H48.9725ZM52.5389 11.76L52.5469 0.240002H53.7309V7.28L57.5869 3.12H59.1549L55.1069 7.44L59.6829 11.76H57.9709L53.7309 7.6V11.76H52.5389ZM63.9361 12C63.0775 12 62.3441 11.8053 61.7361 11.416C61.1281 11.0267 60.6615 10.488 60.3361 9.8C60.0108 9.112 59.8481 8.32267 59.8481 7.432C59.8481 6.52534 60.0135 5.73067 60.3441 5.048C60.6748 4.36533 61.1441 3.83467 61.7521 3.456C62.3655 3.072 63.0935 2.88 63.9361 2.88C64.8001 2.88 65.5361 3.07467 66.1441 3.464C66.7575 3.848 67.2241 4.384 67.5441 5.072C67.8695 5.75467 68.0321 6.54134 68.0321 7.432C68.0321 8.33867 67.8695 9.136 67.5441 9.824C67.2188 10.5067 66.7495 11.04 66.1361 11.424C65.5228 11.808 64.7895 12 63.9361 12ZM63.9361 10.872C64.8961 10.872 65.6108 10.5547 66.0801 9.92C66.5495 9.28 66.7841 8.45067 66.7841 7.432C66.7841 6.38667 66.5468 5.55467 66.0721 4.936C65.6028 4.31734 64.8908 4.008 63.9361 4.008C63.2908 4.008 62.7575 4.15467 62.3361 4.448C61.9201 4.736 61.6081 5.13867 61.4001 5.656C61.1975 6.168 61.0961 6.76 61.0961 7.432C61.0961 8.472 61.3361 9.30667 61.8161 9.936C62.2961 10.56 63.0028 10.872 63.9361 10.872ZM71.8204 11.76L68.6844 3.12H69.8764L72.4284 10.224L74.9644 3.12H76.1724L73.0364 11.76H71.8204ZM79.597 12C78.9463 12 78.3997 11.8827 77.957 11.648C77.5197 11.4133 77.1917 11.1013 76.973 10.712C76.7543 10.3227 76.645 9.89867 76.645 9.44C76.645 8.97067 76.7383 8.57067 76.925 8.24C77.117 7.904 77.3757 7.62934 77.701 7.416C78.0317 7.20267 78.413 7.04 78.845 6.928C79.2823 6.82134 79.765 6.728 80.293 6.648C80.8263 6.56267 81.3463 6.49067 81.853 6.432C82.365 6.368 82.813 6.30667 83.197 6.248L82.781 6.504C82.797 5.65067 82.6317 5.01867 82.285 4.608C81.9383 4.19733 81.3357 3.992 80.477 3.992C79.885 3.992 79.3837 4.12533 78.973 4.392C78.5677 4.65867 78.2823 5.08 78.117 5.656L76.973 5.32C77.1703 4.54667 77.5677 3.94667 78.165 3.52C78.7623 3.09334 79.5383 2.88 80.493 2.88C81.2823 2.88 81.9517 3.02934 82.501 3.328C83.0557 3.62134 83.4477 4.048 83.677 4.608C83.7837 4.85867 83.853 5.13867 83.885 5.448C83.917 5.75734 83.933 6.072 83.933 6.392V11.76H82.885V9.592L83.189 9.72C82.8957 10.4613 82.4397 11.0267 81.821 11.416C81.2023 11.8053 80.461 12 79.597 12ZM79.733 10.984C80.2823 10.984 80.7623 10.8853 81.173 10.688C81.5837 10.4907 81.9143 10.2213 82.165 9.88C82.4157 9.53334 82.5783 9.144 82.653 8.712C82.717 8.43467 82.7517 8.13067 82.757 7.8C82.7623 7.464 82.765 7.21334 82.765 7.048L83.213 7.28C82.813 7.33334 82.3783 7.38667 81.909 7.44C81.445 7.49334 80.9863 7.55467 80.533 7.624C80.085 7.69334 79.6797 7.776 79.317 7.872C79.0717 7.94134 78.8343 8.04 78.605 8.168C78.3757 8.29067 78.1863 8.456 78.037 8.664C77.893 8.872 77.821 9.13067 77.821 9.44C77.821 9.69067 77.8823 9.93334 78.005 10.168C78.133 10.4027 78.3357 10.5973 78.613 10.752C78.8957 10.9067 79.269 10.984 79.733 10.984ZM92.1356 6.24V0.240002H92.9276L95.1836 4.104L97.4396 0.240002H98.2316L98.2476 6.24H97.3356V2.096L95.4956 5.296H94.8716L93.0396 2.096V6.24H92.1356ZM87.9516 6.24V1.136H85.8556V0.240002H90.9836V1.136H88.9036V6.24H87.9516Z" fill="white"/>
</svg>
